<?xml version="1.0" encoding="UTF-8"?>
<!DOCTYPE svg PUBLIC "-//W3C//DTD SVG 1.1//EN" "http://www.w3.org/Graphics/SVG/1.1/DTD/svg11.dtd">
<!-- Creator: CorelDRAW X7 -->
<svg xmlns="http://www.w3.org/2000/svg" xml:space="preserve" width="225mm" height="190mm" version="1.1" style="shape-rendering:geometricPrecision; text-rendering:geometricPrecision; image-rendering:optimizeQuality; fill-rule:evenodd; clip-rule:evenodd"
viewBox="0 0 22500 19000"
 xmlns:xlink="http://www.w3.org/1999/xlink">
 <defs>
  <style type="text/css">
   <![CDATA[
    .fil42 {fill:#E6E7E8}
    .fil41 {fill:#E5E6E7}
    .fil40 {fill:#E4E4E5}
    .fil39 {fill:#E2E4E5}
    .fil38 {fill:#E1E3E4}
    .fil37 {fill:#E0E2E3}
    .fil36 {fill:#E0E2E2}
    .fil35 {fill:#DEE1E1}
    .fil34 {fill:#DDE0E1}
    .fil33 {fill:#DCDFDF}
    .fil32 {fill:#DCDEDC}
    .fil31 {fill:#DBDDDD}
    .fil30 {fill:#DBDDDC}
    .fil29 {fill:#DADBDA}
    .fil28 {fill:#D9DAD9}
    .fil27 {fill:#D8D9D7}
    .fil26 {fill:#D7D8D7}
    .fil25 {fill:#D5D7D6}
    .fil24 {fill:#D4D6D5}
    .fil23 {fill:#D3D5D4}
    .fil22 {fill:#D2D4D3}
    .fil21 {fill:#D2D3D2}
    .fil20 {fill:#D1D2D1}
    .fil19 {fill:#D1D1D0}
    .fil18 {fill:#D0D0D0}
    .fil17 {fill:#CFCFCF}
    .fil16 {fill:#CECECD}
    .fil15 {fill:#CDCDCC}
    .fil14 {fill:#CCCCCB}
    .fil13 {fill:#CBCBCA}
    .fil12 {fill:#CACAC9}
    .fil11 {fill:#C8C9C8}
    .fil10 {fill:#C8C8C9}
    .fil9 {fill:#C7C7C7}
    .fil8 {fill:#C7C6C6}
    .fil7 {fill:#C5C5C6}
    .fil6 {fill:#C4C4C5}
    .fil5 {fill:#C3C4C4}
    .fil4 {fill:#C2C3C2}
    .fil3 {fill:#C1C1C1}
    .fil2 {fill:#C1C0C1}
    .fil1 {fill:silver}
    .fil0 {fill:#BFBFBF}
   ]]>
  </style>
   <clipPath id="id0">
    <rect x="-1634" y="-1990" width="25899" height="23112"/>
   </clipPath>
   <clipPath id="id1">
    <path d="M-1634 21122l25899 0 0 -23112 -25899 0 0 23112z"/>
   </clipPath>
   <clipPath id="id2">
    <rect x="-1634" y="-1990" width="25899" height="23112"/>
   </clipPath>
   <clipPath id="id3">
    <rect x="7487" y="3173" width="8965" height="10213"/>
   </clipPath>
 </defs>
 <g id="Layer_x0020_1">
  <metadata id="CorelCorpID_0Corel-Layer"/>
  <g style="clip-path:url(#id0)">
  </g>
  <g style="clip-path:url(#id1)">
   <image x="-1634" y="-1990" width="25899" height="23112" xlink:href="print2_Images\print2_ImgID1.png"/>
  </g>
  <g style="clip-path:url(#id2)">
  </g>
  <path class="fil0" d="M15720 794c3154,287 5758,1842 4738,6095 -1019,4254 -4399,11943 -8943,10146 -4543,-1796 -12555,-5856 -9363,-9750 3192,-3894 10415,-6778 13568,-6491z"/>
  <g id="_2953361113520">
   <path class="fil1" d="M15712 885c-567,-52 -1172,3 -1732,90 -728,112 -1452,293 -2156,507 -810,245 -1607,542 -2385,874 -828,354 -1638,753 -2423,1193 -926,519 -1824,1100 -2660,1753 -773,603 -1511,1281 -2134,2040 -440,537 -729,1164 -710,1869 64,2412 3654,4613 5508,5632 767,421 1553,812 2349,1177 718,330 1445,640 2180,931 612,242 1247,325 1898,209 2369,-420 4154,-3311 5121,-5295 412,-845 773,-1719 1087,-2605 277,-783 521,-1584 715,-2392 367,-1531 383,-3223 -767,-4436 -979,-1031 -2522,-1423 -3891,-1547z"/>
   <path class="fil2" d="M15704 975c-559,-50 -1157,4 -1710,90 -724,112 -1444,291 -2144,504 -1650,501 -3287,1216 -4790,2059 -921,517 -1816,1096 -2648,1746 -768,599 -1501,1272 -2119,2026 -426,520 -708,1126 -690,1809 63,2365 3644,4556 5461,5554 1451,797 2979,1494 4518,2103 597,236 1215,317 1849,204 2334,-414 4104,-3293 5055,-5245 411,-842 770,-1713 1083,-2596 276,-780 519,-1577 712,-2382 359,-1499 383,-3164 -745,-4352 -961,-1014 -2487,-1397 -3832,-1520z"/>
   <path class="fil3" d="M15696 1067c-552,-51 -1143,4 -1688,88 -720,112 -1436,290 -2131,501 -1644,499 -3275,1213 -4772,2052 -1710,959 -3492,2226 -4741,3750 -412,503 -687,1088 -669,1748 61,2319 3634,4500 5413,5477 1447,795 2972,1491 4508,2098 581,229 1182,309 1799,199 2297,-407 4053,-3274 4989,-5195 409,-839 767,-1706 1079,-2586 275,-777 517,-1572 709,-2373 352,-1467 382,-3104 -722,-4268 -945,-996 -2453,-1371 -3774,-1491z"/>
   <path class="fil3" d="M15687 1158c-1171,-107 -2669,248 -3784,586 -1637,497 -3262,1208 -4753,2044 -1699,953 -3473,2213 -4715,3728 -398,486 -666,1050 -649,1688 61,2271 3625,4442 5366,5398 1444,793 2966,1488 4498,2093 565,224 1148,301 1749,195 2261,-401 4002,-3257 4923,-5145 753,-1546 1380,-3267 1781,-4941 343,-1434 381,-3044 -700,-4183 -927,-978 -2419,-1345 -3716,-1463z"/>
   <path class="fil4" d="M15679 1250c-1158,-106 -2647,248 -3749,582 -1631,496 -3249,1203 -4735,2037 -1689,947 -3455,2200 -4689,3706 -384,468 -644,1011 -628,1626 60,2224 3615,4385 5318,5320 1441,792 2959,1484 4488,2089 549,217 1115,293 1698,189 2225,-395 3952,-3238 4857,-5094 750,-1540 1375,-3255 1774,-4922 336,-1402 381,-2984 -676,-4099 -911,-960 -2386,-1318 -3658,-1434z"/>
   <path class="fil5" d="M15671 1342c-1145,-104 -2625,248 -3714,579 -1624,493 -3237,1198 -4717,2028 -1678,941 -3436,2188 -4663,3684 -369,451 -622,973 -606,1566 58,2176 3605,4327 5270,5241 1437,790 2952,1481 4477,2084 533,211 1082,285 1648,184 2188,-388 3901,-3220 4790,-5044 747,-1534 1369,-3242 1767,-4903 328,-1368 381,-2923 -653,-4013 -894,-942 -2352,-1293 -3599,-1406z"/>
   <path class="fil6" d="M15662 1434c-1131,-103 -2602,249 -3678,576 -1618,491 -3225,1193 -4699,2020 -1667,935 -3417,2175 -4636,3662 -355,433 -601,934 -585,1504 56,2128 3596,4270 5222,5163 1433,788 2945,1477 4466,2079 517,204 1049,276 1598,179 2150,-382 3849,-3203 4722,-4994 745,-1527 1365,-3229 1761,-4883 320,-1335 380,-2863 -631,-3928 -876,-924 -2317,-1266 -3540,-1378z"/>
   <path class="fil7" d="M15654 1527c-1117,-102 -2580,249 -3643,572 -1611,489 -3212,1189 -4680,2012 -1657,930 -3398,2162 -4610,3640 -341,416 -579,895 -564,1443 55,2078 3587,4212 5173,5084 1431,785 2938,1473 4456,2073 501,198 1015,269 1548,174 2112,-375 3798,-3185 4655,-4942 741,-1522 1359,-3217 1754,-4865 311,-1302 378,-2803 -608,-3842 -859,-906 -2283,-1240 -3481,-1349z"/>
   <path class="fil7" d="M15645 1620c-1103,-101 -2557,249 -3607,568 -1605,487 -3199,1185 -4661,2005 -1647,923 -3380,2149 -4584,3617 -326,398 -557,857 -543,1381 54,2029 3578,4155 5125,5005 1427,783 2931,1470 4445,2068 485,192 982,261 1498,169 2074,-368 3746,-3167 4587,-4891 738,-1516 1354,-3205 1747,-4846 304,-1268 377,-2742 -585,-3756 -842,-887 -2249,-1213 -3422,-1320z"/>
   <path class="fil8" d="M15637 1713c-1090,-99 -2535,250 -3572,565 -1598,485 -3186,1180 -4643,1996 -1636,918 -3360,2137 -4556,3596 -312,379 -536,818 -522,1319 52,1979 3569,4097 5076,4925 1424,781 2924,1466 4435,2063 468,185 948,253 1446,164 2036,-361 3695,-3149 4520,-4840 735,-1510 1348,-3192 1740,-4827 295,-1233 376,-2681 -562,-3669 -824,-869 -2214,-1187 -3362,-1292z"/>
   <path class="fil9" d="M15628 1807c-1076,-98 -2512,250 -3535,560 -1592,484 -3174,1176 -4625,1989 -1625,912 -3341,2124 -4530,3573 -296,362 -513,779 -501,1257 52,1928 3561,4039 5029,4845 1420,780 2917,1463 4423,2059 453,179 915,244 1396,159 1997,-355 3643,-3132 4451,-4789 733,-1504 1343,-3180 1733,-4808 288,-1199 375,-2620 -538,-3583 -807,-850 -2180,-1160 -3303,-1262z"/>
   <path class="fil10" d="M15620 1901c-1062,-97 -2490,250 -3500,557 -1586,481 -3161,1170 -4605,1981 -1615,905 -3323,2110 -4504,3550 -281,343 -491,741 -479,1195 50,1877 3552,3981 4979,4765 1417,778 2910,1459 4413,2053 436,172 881,236 1344,154 1959,-348 3592,-3115 4383,-4738 730,-1497 1338,-3167 1727,-4788 279,-1164 373,-2559 -516,-3496 -788,-831 -2145,-1134 -3242,-1233z"/>
   <path class="fil11" d="M15611 1995c-1048,-96 -2467,251 -3464,553 -1578,480 -3148,1166 -4586,1973 -1604,900 -3304,2097 -4477,3528 -266,325 -469,701 -458,1132 49,1825 3544,3923 4931,4685 1413,776 2903,1455 4402,2048 419,166 846,228 1293,149 1919,-341 3540,-3097 4314,-4686 727,-1491 1333,-3154 1720,-4769 270,-1130 372,-2498 -492,-3409 -771,-812 -2112,-1107 -3183,-1204z"/>
   <path class="fil11" d="M15602 2089c-1033,-94 -2443,251 -3427,550 -1572,478 -3135,1162 -4568,1965 -1593,893 -3284,2084 -4449,3505 -252,307 -448,663 -437,1070 48,1772 3535,3864 4881,4604 1410,774 2896,1451 4392,2043 403,159 812,219 1241,143 1879,-333 3488,-3079 4246,-4634 724,-1485 1327,-3141 1712,-4749 263,-1094 371,-2437 -468,-3321 -753,-794 -2077,-1080 -3123,-1176z"/>
   <path class="fil12" d="M15594 2184c-1020,-93 -2421,252 -3391,546 -1566,476 -3123,1157 -4549,1957 -1582,887 -3265,2071 -4422,3483 -237,288 -426,623 -416,1006 46,1720 3527,3806 4832,4523 1406,772 2889,1448 4381,2038 386,153 778,211 1190,138 1839,-326 3436,-3062 4176,-4582 721,-1478 1322,-3128 1706,-4729 253,-1059 368,-2376 -445,-3234 -734,-774 -2043,-1053 -3062,-1146z"/>
   <path class="fil13" d="M15585 2279c-1005,-91 -2398,252 -3354,543 -1560,473 -3110,1152 -4530,1948 -1572,882 -3246,2058 -4396,3460 -220,269 -403,585 -393,944 19,723 765,1542 1255,2006 1011,956 2311,1767 3527,2435 1403,771 2882,1445 4370,2033 370,147 744,203 1138,133 1799,-319 3384,-3045 4107,-4529 718,-1473 1317,-3116 1699,-4710 245,-1024 367,-2315 -421,-3146 -716,-755 -2009,-1026 -3002,-1117z"/>
   <path class="fil14" d="M15576 2375c-991,-90 -2375,252 -3318,538 -1552,472 -3096,1148 -4510,1941 -1561,875 -3227,2045 -4368,3437 -205,250 -381,547 -372,880 18,690 758,1498 1225,1939 1004,951 2299,1757 3507,2421 1399,769 2875,1441 4359,2028 354,140 710,195 1086,128 1758,-312 3332,-3028 4038,-4477 715,-1466 1311,-3103 1691,-4691 237,-987 365,-2254 -397,-3057 -697,-735 -1975,-999 -2941,-1087z"/>
   <path class="fil15" d="M15568 2471c-977,-89 -2353,253 -3282,535 -1546,469 -3083,1142 -4491,1932 -1550,869 -3208,2032 -4341,3414 -189,230 -358,508 -350,816 18,658 752,1453 1195,1873 998,944 2287,1746 3488,2406 1395,766 2867,1437 4347,2023 337,133 676,186 1034,122 1717,-305 3280,-3011 3969,-4425 711,-1459 1305,-3089 1684,-4670 228,-951 362,-2193 -374,-2969 -678,-715 -1940,-972 -2879,-1057z"/>
   <path class="fil15" d="M15559 2567c-962,-88 -2330,253 -3245,531 -1539,467 -3070,1138 -4472,1924 -1538,863 -3188,2019 -4313,3391 -173,211 -336,470 -328,753 16,623 745,1408 1164,1804 992,939 2275,1737 3468,2392 1392,765 2860,1434 4337,2018 320,126 641,177 981,117 1675,-297 3227,-2995 3899,-4372 708,-1453 1300,-3077 1677,-4650 219,-914 360,-2132 -350,-2880 -660,-696 -1906,-945 -2818,-1028z"/>
   <path class="fil16" d="M15550 2663c-947,-86 -2307,254 -3207,528 -1533,465 -3057,1133 -4454,1916 -1527,856 -3168,2005 -4285,3368 -156,190 -313,432 -306,688 15,589 739,1363 1134,1737 985,932 2262,1726 3448,2377 1388,763 2853,1430 4326,2013 303,120 605,169 928,112 1633,-290 3175,-2978 3829,-4319 705,-1447 1294,-3064 1670,-4631 210,-876 357,-2071 -326,-2791 -641,-675 -1872,-917 -2757,-998z"/>
   <path class="fil17" d="M15541 2760c-932,-85 -2283,255 -3170,524 -1526,463 -3044,1128 -4434,1908 -1516,850 -3149,1992 -4258,3344 -139,170 -290,395 -284,625 15,553 734,1318 1104,1668 979,927 2249,1716 3428,2363 1384,761 2845,1426 4314,2007 287,113 571,161 876,107 1590,-282 3122,-2961 3758,-4266 702,-1441 1289,-3051 1663,-4611 201,-837 354,-2010 -302,-2701 -621,-655 -1838,-890 -2695,-968z"/>
   <path class="fil18" d="M15533 2858c-918,-84 -2261,254 -3134,519 -1519,461 -3030,1124 -4414,1900 -1505,844 -3130,1978 -4231,3321 -121,148 -267,358 -262,560 14,518 729,1274 1074,1600 973,921 2237,1706 3408,2348 1381,759 2838,1423 4303,2002 270,107 536,153 823,102 1547,-275 3070,-2945 3688,-4213 699,-1434 1283,-3037 1655,-4590 192,-799 350,-1950 -278,-2612 -601,-634 -1804,-862 -2632,-937z"/>
   <path class="fil19" d="M15524 2955c-903,-82 -2238,255 -3096,516 -1513,459 -3018,1118 -4396,1891 -1493,838 -3109,1965 -4202,3298 -102,125 -244,322 -240,496 13,480 724,1229 1043,1531 967,915 2225,1695 3388,2334 1377,756 2831,1418 4292,1996 252,100 501,144 770,96 1503,-266 3017,-2928 3616,-4159 696,-1428 1278,-3024 1649,-4570 182,-760 346,-1889 -254,-2521 -582,-614 -1770,-835 -2570,-908z"/>
   <path class="fil19" d="M15515 3053c-888,-81 -2215,256 -3059,512 -1505,457 -3004,1114 -4375,1883 -1483,831 -3090,1952 -4175,3275 -83,101 -221,287 -218,430 12,443 719,1185 1013,1463 960,908 2212,1684 3367,2318 1374,755 2824,1416 4281,1992 235,93 467,135 717,90 1459,-258 2964,-2912 3545,-4105 693,-1421 1273,-3011 1641,-4550 173,-719 343,-1828 -229,-2430 -562,-593 -1736,-808 -2508,-878z"/>
   <path class="fil20" d="M15506 3151c-873,-79 -2192,256 -3021,508 -1499,455 -2991,1109 -4356,1875 -1471,825 -3070,1938 -4147,3251 -62,76 -198,255 -195,365 11,404 714,1141 982,1394 953,902 2199,1674 3346,2304 1371,753 2817,1411 4271,1986 217,86 431,127 663,85 1414,-250 2910,-2896 3473,-4051 690,-1415 1267,-2998 1634,-4530 163,-679 338,-1768 -204,-2340 -542,-571 -1703,-779 -2446,-847z"/>
   <path class="fil21" d="M15497 3250c-858,-78 -2169,257 -2983,504 -1492,453 -2978,1104 -4337,1866 -1460,819 -3050,1925 -4118,3228 -40,48 -175,226 -173,300 10,364 710,1096 951,1324 947,896 2187,1663 3326,2289 1367,751 2809,1408 4259,1981 200,79 396,118 610,80 1368,-243 2857,-2880 3402,-3997 686,-1409 1261,-2985 1626,-4510 153,-637 333,-1708 -180,-2248 -522,-550 -1669,-752 -2383,-817z"/>
   <path class="fil22" d="M3985 9149c11,318 702,1044 910,1242 941,894 2181,1660 3316,2283 1363,749 2801,1404 4248,1976 182,72 360,109 555,74 530,-94 1120,-652 1464,-1032 755,-834 1375,-1903 1866,-2911 684,-1402 1256,-2971 1620,-4489 142,-595 326,-1648 -156,-2157 -501,-528 -1636,-724 -2320,-786 -842,-77 -2145,257 -2946,500 -1485,451 -2963,1099 -4316,1858 -1449,812 -3030,1911 -4090,3204 -38,46 -134,173 -151,238z"/>
   <path class="fil22" d="M4088 9160c58,340 731,1026 955,1233 926,855 2113,1588 3216,2194 1359,746 2794,1400 4236,1970 165,65 326,100 502,69 503,-89 1081,-641 1407,-1001 748,-827 1363,-1888 1851,-2888 680,-1395 1250,-2958 1612,-4469 132,-551 320,-1588 -132,-2065 -479,-505 -1602,-696 -2256,-755 -827,-75 -2122,258 -2908,496 -1478,449 -2950,1095 -4296,1850 -1438,806 -3011,1897 -4062,3180 -33,40 -100,127 -125,186z"/>
   <path class="fil23" d="M4194 9171c101,351 744,992 972,1199 914,828 2063,1537 3141,2129 1356,745 2787,1396 4225,1965 147,58 290,91 447,63 476,-84 1044,-629 1351,-969 742,-820 1352,-1874 1835,-2864 677,-1389 1244,-2945 1604,-4449 122,-506 314,-1530 -106,-1973 -458,-483 -1569,-668 -2193,-724 -811,-74 -2099,258 -2869,492 -1472,447 -2937,1089 -4278,1841 -1425,799 -2990,1884 -4033,3156 -25,32 -69,87 -96,134z"/>
   <path class="fil24" d="M4305 9183c138,354 747,951 974,1154 901,804 2020,1494 3076,2074 1352,743 2780,1393 4214,1960 129,51 255,82 393,58 447,-80 1005,-620 1293,-938 736,-813 1341,-1860 1819,-2841 674,-1383 1239,-2931 1598,-4428 110,-461 305,-1473 -82,-1881 -436,-460 -1536,-640 -2129,-694 -796,-72 -2076,260 -2831,489 -1465,445 -2923,1084 -4257,1833 -1414,793 -2970,1870 -4005,3132 -17,21 -42,52 -63,82z"/>
   <path class="fil25" d="M4421 9195c170,354 742,905 965,1102 889,784 1981,1456 3018,2026 1348,740 2772,1388 4202,1954 110,44 220,73 338,52 419,-74 968,-608 1237,-906 728,-805 1329,-1845 1803,-2817 671,-1376 1233,-2918 1590,-4408 99,-414 296,-1415 -57,-1787 -414,-437 -1504,-612 -2066,-663 -779,-71 -2052,260 -2792,485 -1457,442 -2909,1079 -4237,1823 -1403,787 -2950,1857 -3976,3109 -7,9 -16,19 -25,30z"/>
   <path class="fil25" d="M4542 9207c196,349 729,855 947,1045 877,766 1945,1423 2964,1982 1344,739 2764,1385 4190,1949 91,36 185,64 284,47 389,-69 929,-599 1179,-875 722,-798 1317,-1830 1787,-2794 667,-1369 1227,-2904 1582,-4386 88,-366 285,-1361 -32,-1695 -391,-412 -1471,-583 -2001,-631 -763,-70 -2029,260 -2754,480 -1450,441 -2895,1075 -4217,1816 -1382,775 -2911,1830 -3929,3062z"/>
   <path class="fil26" d="M4666 9217c215,340 711,805 922,987 866,749 1912,1391 2913,1941 1341,737 2757,1381 4179,1944 71,28 152,55 229,41 359,-64 892,-589 1121,-843 716,-790 1306,-1815 1772,-2770 664,-1363 1221,-2891 1575,-4366 76,-316 272,-1307 -7,-1601 -369,-388 -1439,-555 -1937,-600 -747,-68 -2005,261 -2715,476 -1444,439 -2882,1070 -4197,1807 -1350,757 -2845,1785 -3855,2984z"/>
   <path class="fil27" d="M4794 9224c229,330 687,755 891,929 855,733 1880,1362 2865,1903 1338,734 2749,1377 4168,1938 49,19 118,45 173,36 328,-59 854,-580 1064,-811 708,-783 1294,-1801 1755,-2747 661,-1356 1216,-2877 1568,-4345 64,-268 258,-1253 18,-1507 -345,-364 -1407,-527 -1872,-569 -731,-66 -1982,262 -2677,473 -1436,436 -2868,1064 -4176,1798 -1317,739 -2777,1739 -3777,2902z"/>
   <path class="fil28" d="M4924 9230c238,317 661,704 856,870 844,717 1850,1334 2820,1866 1333,733 2741,1374 4156,1933 22,9 89,35 117,30 297,-53 817,-570 1006,-779 702,-775 1283,-1786 1739,-2723 658,-1349 1210,-2863 1560,-4324 53,-218 242,-1203 44,-1412 -321,-339 -1375,-499 -1807,-538 -714,-65 -1959,263 -2638,469 -1429,434 -2854,1059 -4156,1789 -1283,720 -2707,1691 -3697,2819z"/>
   <path class="fil28" d="M5057 9235c242,302 630,652 816,809 834,703 1822,1308 2776,1832 1330,731 2734,1370 4144,1927 19,8 49,19 71,23 254,-49 764,-552 921,-725 703,-770 1286,-1785 1741,-2719 654,-1342 1204,-2849 1553,-4303 41,-171 224,-1154 68,-1318 -296,-312 -1342,-470 -1742,-506 -697,-63 -1935,264 -2598,465 -1422,432 -2840,1054 -4136,1781 -1248,700 -2635,1642 -3614,2734z"/>
   <path class="fil29" d="M5193 9238c242,285 595,601 772,749 824,689 1794,1283 2734,1799 1325,728 2726,1365 4132,1922 9,3 21,8 32,11 265,-84 740,-567 900,-747 672,-757 1229,-1729 1671,-2635 651,-1336 1198,-2835 1544,-4282 56,-232 197,-980 90,-1228 -255,-277 -1333,-439 -1672,-469 -680,-62 -1912,264 -2559,460 -1415,430 -2826,1050 -4116,1772 -1212,681 -2561,1593 -3528,2648z"/>
   <path class="fil30" d="M5331 9241c238,266 558,548 724,687 814,676 1767,1259 2693,1768 1320,724 2714,1359 4114,1913 268,-114 707,-571 864,-752 647,-743 1184,-1682 1615,-2565 647,-1329 1192,-2822 1537,-4261 54,-225 179,-885 100,-1146 -284,-250 -1259,-394 -1591,-424 -664,-61 -1889,265 -2520,456 -1408,428 -2812,1044 -4095,1764 -1177,659 -2486,1541 -3441,2560z"/>
   <path class="fil31" d="M5473 9242c229,246 516,496 672,625 803,663 1741,1237 2653,1738 1303,715 2678,1342 4059,1890 267,-136 672,-567 825,-745 625,-731 1145,-1642 1565,-2504 645,-1322 1187,-2807 1530,-4239 51,-214 163,-795 108,-1062 -306,-223 -1187,-352 -1508,-381 -646,-59 -1865,266 -2480,453 -1401,425 -2798,1038 -4074,1754 -1140,639 -2409,1490 -3350,2471z"/>
   <path class="fil31" d="M5617 9243c218,223 472,443 616,562 794,651 1716,1215 2615,1708 1285,706 2640,1325 4002,1867 261,-154 635,-558 782,-733 607,-718 1111,-1604 1522,-2446 641,-1316 1180,-2794 1522,-4218 48,-200 147,-708 113,-976 -322,-197 -1116,-312 -1421,-339 -629,-58 -1842,267 -2441,448 -1393,423 -2784,1034 -4053,1746 -1103,618 -2331,1438 -3257,2381z"/>
   <path class="fil32" d="M5764 9243c202,200 424,390 557,498 784,640 1692,1194 2578,1681 1265,694 2598,1305 3940,1841 255,-167 598,-544 740,-715 588,-706 1079,-1569 1481,-2393 638,-1308 1174,-2779 1514,-4196 44,-185 131,-624 116,-887 -333,-173 -1044,-274 -1332,-300 -610,-56 -1818,268 -2400,444 -1387,421 -2770,1029 -4033,1737 -1065,597 -2251,1385 -3161,2290z"/>
   <path class="fil33" d="M5914 9243c183,175 374,337 494,434 775,628 1668,1173 2541,1653 1245,683 2557,1286 3877,1815 246,-176 560,-528 696,-693 573,-694 1050,-1536 1443,-2343 635,-1302 1169,-2765 1507,-4175 40,-169 116,-542 115,-794 -336,-151 -970,-239 -1238,-264 -593,-54 -1796,269 -2361,441 -1379,418 -2756,1023 -4012,1728 -1026,575 -2170,1331 -3062,2198z"/>
   <path class="fil34" d="M6067 9243c161,148 321,283 427,368 766,618 1645,1153 2506,1626 1224,673 2513,1266 3810,1788 236,-182 524,-508 653,-667 557,-683 1022,-1505 1408,-2295 631,-1295 1163,-2751 1499,-4153 36,-152 100,-464 110,-700 -333,-130 -892,-206 -1141,-229 -574,-52 -1772,270 -2320,436 -1372,417 -2742,1019 -3991,1719 -988,554 -2088,1278 -2961,2107z"/>
   <path class="fil34" d="M6222 9242c136,121 267,229 357,302 757,607 1623,1134 2472,1601 1202,660 2467,1244 3742,1759 224,-185 486,-486 609,-638 542,-672 996,-1475 1374,-2249 628,-1288 1157,-2737 1491,-4132 32,-134 85,-389 103,-603 -325,-109 -811,-175 -1040,-196 -564,-49 -1750,271 -2288,435 -1362,414 -2722,1012 -3963,1708 -948,531 -2004,1222 -2857,2013z"/>
   <path class="fil35" d="M6381 9240c108,94 209,177 283,237 748,596 1601,1115 2438,1575 1180,648 2421,1222 3671,1730 213,-185 450,-462 566,-607 528,-661 971,-1446 1341,-2205 625,-1281 1151,-2723 1484,-4110 27,-114 70,-317 92,-503 -309,-91 -728,-146 -935,-165 -562,-46 -1730,272 -2266,436 -1349,412 -2695,1004 -3924,1693 -908,509 -1919,1168 -2750,1919z"/>
   <path class="fil36" d="M6542 9239c79,66 150,124 207,169 739,586 1578,1097 2404,1550 1157,636 2373,1200 3599,1700 199,-182 413,-435 522,-572 515,-651 948,-1418 1311,-2163 621,-1274 1144,-2708 1475,-4088 23,-94 56,-248 78,-400 -286,-74 -640,-120 -826,-137 -559,-42 -1710,273 -2244,437 -1335,410 -2667,996 -3885,1679 -867,487 -1833,1112 -2641,1825z"/>
   <path class="fil36" d="M15303 5405c-558,-38 -1689,274 -2220,438 -1323,407 -2641,988 -3847,1664 -827,464 -1747,1056 -2529,1730 47,38 89,72 126,101 730,577 1557,1079 2372,1527 1133,622 2324,1176 3524,1668 185,-177 376,-406 478,-536 503,-640 926,-1390 1282,-2120 617,-1267 1138,-2695 1467,-4067 18,-73 41,-181 61,-295 -256,-58 -549,-95 -714,-110z"/>
   <path class="fil37" d="M15295 5512c-556,-34 -1669,275 -2198,438 -1309,405 -2614,981 -3809,1651 -785,440 -1658,999 -2413,1633 15,12 29,23 42,33 721,568 1536,1062 2339,1504 1110,609 2274,1153 3449,1636 170,-169 340,-375 434,-497 491,-629 904,-1364 1253,-2080 614,-1260 1133,-2680 1460,-4045 12,-50 26,-115 41,-187 -222,-45 -455,-73 -598,-86z"/>
   <path class="fil38" d="M15288 5619c-555,-29 -1650,276 -2176,440 -1296,402 -2588,972 -3771,1636 -744,417 -1568,942 -2294,1537 701,543 1486,1018 2261,1444 1085,596 2223,1129 3371,1604 154,-160 304,-344 391,-456 479,-620 883,-1339 1225,-2042 611,-1253 1127,-2665 1452,-4022 5,-23 11,-49 18,-77 -181,-32 -359,-53 -477,-64z"/>
   <path class="fil39" d="M15281 5727c-553,-25 -1630,277 -2153,440 -1284,400 -2562,965 -3734,1622 -702,394 -1478,885 -2172,1441 668,505 1408,950 2138,1351 1060,583 2171,1104 3292,1571 138,-149 268,-310 347,-414 468,-609 863,-1314 1199,-2003 602,-1235 1111,-2626 1435,-3964 -134,-21 -261,-35 -352,-44z"/>
   <path class="fil39" d="M15274 5836c-551,-22 -1610,277 -2130,440 -1271,397 -2536,957 -3697,1608 -659,369 -1386,827 -2047,1343 634,467 1327,883 2013,1259 1034,568 2117,1079 3211,1536 120,-135 232,-275 303,-369 457,-599 844,-1289 1173,-1966 581,-1192 1076,-2531 1399,-3826 -85,-11 -163,-19 -225,-25z"/>
   <path class="fil40" d="M15268 5945c-550,-18 -1590,277 -2107,440 -1258,395 -2511,949 -3661,1594 -615,345 -1293,769 -1918,1246 598,429 1243,814 1883,1166 1008,553 2063,1052 3129,1501 103,-120 197,-240 261,-323 446,-589 824,-1266 1147,-1929 560,-1149 1040,-2436 1361,-3686 -34,-3 -66,-7 -95,-9z"/>
   <path class="fil41" d="M15224 6054c-555,-1 -1544,282 -2046,440 -1246,393 -2486,942 -3624,1581 -571,320 -1199,709 -1787,1147 560,392 1158,747 1751,1073 982,539 2007,1026 3045,1465 86,-103 163,-202 218,-275 436,-579 806,-1242 1123,-1893 538,-1104 1001,-2335 1320,-3538z"/>
   <path class="fil41" d="M15079 6169c-565,41 -1424,290 -1883,435 -1234,390 -2461,934 -3589,1566 -526,296 -1102,651 -1651,1049 520,356 1069,680 1615,979 957,526 1956,1002 2967,1432 502,-626 1039,-1619 1267,-2086 514,-1054 959,-2224 1274,-3375z"/>
   <path class="fil42" d="M14929 6295c-552,69 -1297,286 -1715,419 -1221,387 -2436,926 -3553,1553 -481,269 -1006,591 -1512,950 478,319 978,612 1475,885 929,510 1899,974 2880,1393 480,-617 983,-1550 1202,-2000 487,-999 913,-2106 1223,-3200z"/>
  </g>
  <g style="clip-path:url(#id3)">
   <image x="7487" y="3173" width="8965" height="10213" xlink:href="print2_Images\print2_ImgID2.png"/>
  </g>
 </g>
</svg>
